<?xml version="1.0" encoding="UTF-8"?>
<svg version="1.1" viewBox="0 0 313.7 629.74" xml:space="preserve" xmlns="http://www.w3.org/2000/svg">
<style type="text/css">
	.st0{fill:#FFFFFF;}
	.st1{fill:#B39461;}
	.st2{fill:#0077BE;}
	.st3{fill:#00803D;}
	.st4{fill:#FFFFFF;stroke:#B39461;stroke-width:0.8748;stroke-miterlimit:10;}
</style>
























<g transform="translate(-137.4,-102.5)"><path class="st0" d="m391.48 267.74-248.92-2.1213 1.9782 243.83z" fill="#fff"/><path class="st1" d="m185.8 103.9v-0.6h6.8c1.3 0 2.5 0 3.8-0.1 1.2 0 2.5-0.1 3.8-0.1 1.2 0 2.4 0.1 3.7 0.4 1.3 0.2 2.5 0.7 3.6 1.2 1.1 0.6 2 1.4 2.7 2.4s1.1 2.2 1.1 3.8c0 1.2-0.3 2.2-0.8 3.1s-1.2 1.6-2.1 2.1-1.8 1-2.9 1.2c-1.1 0.3-2.1 0.5-3.1 0.6v0.2c1.5 0.3 2.8 0.5 4 0.8s2.2 0.7 3 1.2 1.5 1.3 2 2.3 0.8 2.3 0.9 3.9c0.2 1.9 0.3 3.4 0.4 4.6 0.1 1.1 0.2 2 0.4 2.7 0.2 0.6 0.4 1.1 0.7 1.3s0.7 0.3 1.2 0.3c0.6 0 1.1-0.2 1.5-0.5s0.7-0.7 1-1l0.5 0.4c-0.3 0.3-0.6 0.6-0.9 0.8-0.3 0.3-0.6 0.5-1 0.7s-0.8 0.3-1.4 0.4c-0.5 0.1-1.2 0.2-2 0.2-1.7 0-3-0.3-3.9-0.8s-1.6-1.2-2.1-2-0.7-1.6-0.8-2.6c-0.1-0.9-0.2-1.8-0.2-2.6-0.1-1.2-0.1-2.4-0.2-3.6s-0.4-2.2-0.7-3.1c-0.4-0.9-1-1.6-1.8-2.2-0.8-0.5-1.9-0.8-3.3-0.8h-3v16.3h4.2v0.6h-14.9v-0.6h4.2v-30.9zm12.5 14c1.4 0 2.4-0.2 3.2-0.5 0.8-0.4 1.4-0.9 1.8-1.5s0.6-1.3 0.7-2.1 0.2-1.6 0.2-2.4c0-1.3-0.1-2.5-0.3-3.4s-0.5-1.7-0.9-2.4c-0.4-0.6-1-1.1-1.7-1.4s-1.7-0.5-2.8-0.5h-1c-0.3 0-0.7 0.1-1 0.1v14h1.8z"/><path class="st1" d="m245.5 103.3v7.7h-0.6c-0.2-0.5-0.4-1.2-0.8-2s-0.9-1.6-1.5-2.3-1.5-1.4-2.5-2-2.3-0.8-3.8-0.8h-7.2v14h2.5c1.1 0 2.1-0.2 2.8-0.5 0.8-0.3 1.4-0.8 1.9-1.4s0.9-1.3 1.3-2.1c0.3-0.8 0.6-1.8 0.8-2.8h0.6v14.1h-0.6c-0.2-0.9-0.5-1.7-0.7-2.5-0.3-0.8-0.7-1.5-1.2-2.1s-1.1-1.1-1.8-1.5-1.6-0.5-2.6-0.5h-3v16.3h7.4c1.4 0 2.6-0.2 3.8-0.7 1.1-0.5 2.1-1.1 3-2 0.9-0.8 1.6-1.8 2.1-3 0.6-1.1 1-2.3 1.3-3.6h0.6v9.9h-28.9v-0.6h4.2v-30.9h-4.2v-0.6h27.1z"/><path class="st1" d="m278.4 112.5c-0.8-3-2-5.3-3.5-6.9-1.6-1.6-3.7-2.4-6.3-2.4-2.1 0-3.8 0.4-5 1.2-1.3 0.8-2.2 1.8-2.9 3.1s-1.1 2.7-1.3 4.4c-0.2 1.6-0.3 3.3-0.3 5v3.9c0 2.7 0.2 5.1 0.5 6.9 0.4 1.9 0.9 3.4 1.7 4.5s1.8 2 3 2.5 2.7 0.7 4.4 0.7c1.4 0 2.5-0.2 3.3-0.7s1.4-1.2 1.9-2c0.4-0.9 0.7-1.9 0.8-3.1s0.2-2.5 0.2-3.8v-1.7h-4.7v-0.6h14v0.6h-2.9v10.4h-0.8c-0.1-0.4-0.2-0.6-0.5-0.8s-0.6-0.2-1-0.2c-0.7 0-1.4 0.1-2.1 0.4-0.6 0.3-1.3 0.6-2.1 0.9s-1.6 0.6-2.6 0.9-2.2 0.4-3.6 0.4c-2.2 0-4.3-0.4-6.4-1.3s-3.9-2-5.4-3.5c-1.6-1.5-2.8-3.2-3.7-5.3-0.9-2-1.4-4.2-1.4-6.6 0-2.6 0.5-4.9 1.6-7 1-2.1 2.4-3.9 4-5.3 1.6-1.5 3.4-2.6 5.4-3.4s4-1.2 5.9-1.2c0.9 0 1.8 0.1 2.6 0.3l2.4 0.6c0.7 0.2 1.4 0.4 1.9 0.6 0.6 0.2 1.1 0.3 1.4 0.3 0.4 0 0.7-0.1 0.9-0.2s0.3-0.4 0.5-0.7h0.8v9.2h-0.7z"/><path class="st1" d="m301.3 103.3v0.6h-4.2v30.9h4.2v0.6h-14.9v-0.6h4.2v-30.9h-4.2v-0.6z"/><path class="st1" d="m306.5 112.5c1-2.1 2.4-3.9 4-5.3 1.6-1.5 3.5-2.6 5.5-3.4s4-1.2 5.9-1.2c2.1 0 4.1 0.4 6.2 1.2 2 0.8 3.8 1.9 5.4 3.3s2.9 3.2 3.8 5.3c1 2.1 1.5 4.4 1.5 7 0 2.3-0.5 4.4-1.4 6.4s-2.2 3.8-3.7 5.4c-1.6 1.5-3.3 2.8-5.4 3.6-2 0.9-4.2 1.3-6.4 1.3s-4.4-0.4-6.4-1.3c-2.1-0.9-3.9-2-5.4-3.5-1.6-1.5-2.8-3.2-3.7-5.3-0.9-2-1.4-4.2-1.4-6.6 0-2.5 0.5-4.8 1.5-6.9zm6.4 14.8c0.4 2.1 0.9 3.7 1.7 4.9s1.8 2.1 3 2.6 2.7 0.7 4.4 0.7c2.2 0 4-0.4 5.2-1.2 1.3-0.8 2.2-2 2.8-3.4 0.6-1.5 1-3.2 1.2-5.2s0.2-4.2 0.2-6.5c0-2.1-0.1-4.1-0.2-6s-0.5-3.6-1.2-5.1c-0.6-1.5-1.6-2.6-2.9-3.5s-3.1-1.3-5.3-1.3c-2.1 0-3.8 0.4-5.1 1.2s-2.2 1.9-2.9 3.4c-0.7 1.4-1.1 3.2-1.3 5.2s-0.3 4.2-0.3 6.6c0.1 2.9 0.3 5.5 0.7 7.6z"/><path class="st1" d="m352.9 103.3 15.1 21.5h0.1v-20.9h-4.2v-0.6h9v0.6h-4.2v31.6h-1.2l-20.4-29h-0.1v28.4h4.2v0.6h-9v-0.6h4.2v-30.9h-4.2v-0.6h10.7z"/><path class="st1" d="m403 103.3v7.7h-0.6c-0.2-0.5-0.4-1.2-0.8-2s-0.9-1.6-1.5-2.3c-0.6-0.8-1.5-1.4-2.5-2s-2.3-0.8-3.8-0.8h-7.2v14h2.5c1.1 0 2.1-0.2 2.8-0.5 0.8-0.3 1.4-0.8 1.9-1.4s0.9-1.3 1.3-2.1c0.3-0.8 0.6-1.8 0.8-2.8h0.6v14.1h-0.5c-0.2-0.9-0.5-1.7-0.7-2.5-0.3-0.8-0.7-1.5-1.2-2.1s-1.1-1.1-1.8-1.5-1.6-0.5-2.6-0.5h-3v16.3h7.4c1.4 0 2.6-0.2 3.8-0.7 1.1-0.5 2.1-1.1 3-2 0.9-0.8 1.6-1.8 2.1-3 0.6-1.1 1-2.3 1.3-3.6h0.6v9.9h-28.9v-0.6h4.2v-30.9h-4.2v-0.6h27z"/><path class="st1" d="m141 189.8 18.1-44.2h3.2l19.2 44.2h5.2v0.9h-20.4v-0.9h5.7l-7.1-16.3h-14.6l-6.8 16.3h5.4v0.9h-11.5v-0.9zm9.5-17.1h14l-7.2-16.6z"/><path class="st1" d="m187.2 148.2v-0.9h9.2c1.7 0 3.4 0 5.1-0.1s3.3-0.1 5.1-0.1c1.6 0 3.2 0.2 5 0.5 1.7 0.3 3.3 0.9 4.8 1.6 1.4 0.8 2.6 1.8 3.6 3.1 0.9 1.3 1.4 2.9 1.4 4.9 0 1.7-0.5 3.2-1.4 4.4s-2 2.2-3.3 3-2.6 1.4-4 1.8-2.6 0.7-3.6 0.8v0.2c1.6 0.1 3.2 0.4 4.9 0.8s3.3 1 4.7 1.9 2.6 2 3.5 3.4 1.4 3.2 1.4 5.4c0 2.4-0.6 4.3-1.8 5.8s-2.7 2.8-4.4 3.7-3.6 1.5-5.5 1.9c-1.9 0.3-3.7 0.5-5.2 0.5-1.7 0-3.4 0-5.1-0.1-1.7 0-3.4-0.1-5.1-0.1h-9.2v-0.9h5.6v-41.6h-5.7zm16.9 18.8c1.8 0 3.3-0.2 4.3-0.7 1.1-0.5 1.8-1.1 2.4-2 0.5-0.8 0.9-1.8 1-2.8 0.1-1.1 0.2-2.1 0.2-3.2 0-1.8-0.1-3.3-0.4-4.6-0.2-1.3-0.6-2.3-1.2-3.2-0.6-0.8-1.3-1.5-2.3-1.9s-2.3-0.6-3.8-0.6c-0.4 0-0.9 0-1.3 0.1-0.4 0-0.9 0.1-1.3 0.1v18.8zm1.1 23c1.3 0 2.5-0.2 3.5-0.5s1.9-0.9 2.6-1.7c0.7-0.9 1.3-2 1.7-3.6 0.4-1.5 0.6-3.5 0.6-6 0-0.7-0.1-1.6-0.2-2.8s-0.5-2.3-1-3.4-1.4-2.1-2.5-3c-1.1-0.8-2.7-1.2-4.7-1.2h-3.5v22c1 0.2 2.2 0.2 3.5 0.2z"/><path class="st1" d="m228.9 148.2v-0.9h9.2c1.7 0 3.4 0 5.1-0.1s3.3-0.1 5.1-0.1c1.6 0 3.3 0.2 5 0.5 1.8 0.3 3.4 0.9 4.8 1.7 1.5 0.8 2.7 1.9 3.6 3.2 1 1.3 1.4 3 1.4 5.1 0 1.6-0.4 3-1.1 4.2s-1.7 2.1-2.8 2.8c-1.2 0.7-2.4 1.3-3.9 1.7-1.4 0.4-2.8 0.6-4.2 0.8v0.3c2 0.4 3.8 0.7 5.3 1.1 1.6 0.4 2.9 0.9 4 1.6s2 1.7 2.7 3 1.1 3 1.2 5.2c0.2 2.6 0.4 4.6 0.5 6.1s0.3 2.7 0.5 3.6 0.5 1.4 0.9 1.7 0.9 0.4 1.7 0.4 1.5-0.2 2-0.7 1-0.9 1.4-1.3l0.6 0.5c-0.4 0.4-0.8 0.8-1.2 1.1s-0.8 0.6-1.3 0.9c-0.5 0.2-1.1 0.4-1.9 0.6-0.7 0.1-1.6 0.2-2.7 0.2-2.2 0-4-0.4-5.2-1.1-1.3-0.7-2.2-1.6-2.8-2.6-0.6-1.1-1-2.2-1.1-3.4s-0.2-2.4-0.3-3.5c-0.1-1.7-0.2-3.3-0.3-4.8-0.1-1.6-0.5-3-1-4.2s-1.3-2.2-2.4-2.9-2.5-1.1-4.4-1.1h-4v22h5.6v0.9h-20v-0.9h5.6v-41.6zm16.9 18.8c1.8 0 3.3-0.2 4.3-0.7 1.1-0.5 1.8-1.1 2.4-2 0.5-0.8 0.9-1.8 1-2.8 0.1-1.1 0.2-2.1 0.2-3.2 0-1.8-0.1-3.3-0.4-4.6-0.2-1.3-0.6-2.3-1.2-3.2-0.6-0.8-1.3-1.5-2.3-1.9s-2.3-0.6-3.8-0.6c-0.4 0-0.9 0-1.3 0.1-0.4 0-0.9 0.1-1.3 0.1v18.8z"/><path class="st1" d="m292.8 147.4v0.9h-5.6v27.3c0 1.9 0.1 3.8 0.3 5.6s0.6 3.4 1.3 4.8 1.7 2.6 3 3.4c1.3 0.9 3.1 1.3 5.3 1.3s2.9-0.3 4.4-0.8 2.7-1.2 3.7-2 1.7-1.8 2.3-2.8c0.5-1 0.9-2.1 1.2-3.1 0.2-1 0.4-2 0.4-2.9s0.1-1.7 0.1-2.3l-0.3-28.6h-4.1v-0.9h12.2v0.9h-5.7v28.5c0 0.6 0 1.5-0.1 2.5 0 1-0.2 2-0.5 3.1s-0.7 2.2-1.3 3.3-1.4 2.1-2.5 3-2.5 1.6-4.1 2.1c-1.7 0.5-3.7 0.8-6.1 0.8-3.9 0-7.1-0.4-9.5-1.3s-4.2-2-5.5-3.4-2.1-3-2.5-4.8-0.6-3.6-0.6-5.4v-28.4h-5.7v-0.9h19.9z"/><path class="st1" d="m336.2 148.2c-1.6 0-3 0.2-4.3 0.7-1.2 0.4-2.3 1.1-3.2 1.9s-1.7 1.8-2.4 2.9-1.3 2.4-1.9 3.8h-0.8v-10.2h31.5l-24.6 42.5h11c1.6 0 3.2-0.2 4.7-0.7 1.5-0.4 2.9-1.2 4.2-2.2s2.4-2.4 3.3-4c1-1.6 1.7-3.6 2.2-6h0.8v13.8h-36.6l24.5-42.5z"/><path class="st1" d="m377.8 148.2c-1.6 0-3 0.2-4.3 0.7-1.2 0.4-2.3 1.1-3.2 1.9s-1.7 1.8-2.4 2.9-1.3 2.4-1.9 3.8h-0.8v-10.2h31.5l-24.6 42.5h11c1.6 0 3.2-0.2 4.7-0.7 1.5-0.4 2.9-1.2 4.2-2.2s2.4-2.4 3.3-4c1-1.6 1.7-3.6 2.2-6h0.8v13.8h-36.6l24.5-42.5z"/><path class="st1" d="m406.1 159.8c1.4-2.8 3.2-5.2 5.4-7.2s4.6-3.5 7.4-4.6c2.7-1.1 5.4-1.6 8-1.6 2.8 0 5.6 0.5 8.3 1.6s5.2 2.6 7.3 4.5 3.9 4.3 5.2 7.1 2 5.9 2 9.4c0 3-0.6 5.9-1.9 8.7s-2.9 5.1-5 7.2-4.5 3.7-7.2 4.9-5.6 1.8-8.7 1.8c-3 0-5.9-0.6-8.6-1.7-2.8-1.2-5.2-2.7-7.3-4.7s-3.8-4.4-5-7.1c-1.3-2.7-1.9-5.7-1.9-8.8-0.1-3.6 0.6-6.7 2-9.5zm8.6 19.8c0.5 2.8 1.2 5 2.3 6.6 1 1.6 2.4 2.8 4 3.4s3.6 1 5.9 1c3 0 5.4-0.6 7.1-1.7s3-2.7 3.8-4.6c0.9-2 1.4-4.3 1.6-7s0.3-5.6 0.3-8.8c0-2.8-0.1-5.5-0.3-8.1s-0.7-4.8-1.6-6.8-2.1-3.5-3.9-4.7c-1.7-1.2-4.1-1.7-7.2-1.7-2.8 0-5.1 0.5-6.8 1.6s-3 2.6-3.9 4.5-1.5 4.3-1.8 6.9c-0.3 2.7-0.4 5.6-0.4 8.8 0.1 4.4 0.4 7.9 0.9 10.6z"/><path class="st2" d="m445.78 613.15-2.0594-191.96-217.97 219.57c6.9 0 16.9 1.8625 20.9 2.2625 2.1 0.2 4.4125 0.525 6.0125 0.925 1.4 0.3 4.4 1.1 6.5 1.9 3.2 1.2 6.7375-1.65 9.3375 0.05 4.3 2.6 7.7 5.7 10.1 8.2 1.8 1.9 4.5 5.6 7.1 9.2 4.4 5.9 8.7 11.8 8.7 11.8 2.7-3.7 5.4-7.4 7.8-10.6 3.5-4.8 6.5-8.9 9.5-11.9 2.1-2.2 4.6-4.2 6.6-5.5 1.4-1 9.925-0.7 17.225-2.4 5-1.2 6.487-3.1918 16.587-3.1042l63.888 0.55416c15.5-0.1 29.875-13.6 29.775-29z"/><path class="st3" d="m389.3 267.8c-80.622 80.245-163.65 160.08-244.1 240.5l-3.75 105.75c-0.53867 15.19 12.4 27.5 27.6 27.5l58.95-1.85 215.7-215.7 0.875-157.45z"/><path class="st1" d="m298.8 304.1c-3.5 0-6.3 2.8-6.3 6.3v0.2 0.2h0.1-0.1l1.6 10.9h-3.6l1.6-10.9v-0.2-0.2c0-3.5-2.8-6.3-6.3-6.3s-6.3 2.8-6.3 6.3c0 0.7 0.5 1.2 1.2 1.2s1.2-0.5 1.2-1.2c0-2.2 1.8-3.9 3.9-3.9 2.2 0 3.9 1.8 3.9 3.9v0.1l-1.8 12.2c-0.1 0.3 0.1 0.7 0.3 1s0.6 0.4 0.9 0.4h6.2c0.3 0 0.7-0.2 0.9-0.4 0.2-0.3 0.3-0.6 0.3-1l-1.8-12.3v-0.1c0-2.2 1.8-3.9 3.9-3.9s3.9 1.8 3.9 3.9c0 0.7 0.5 1.2 1.2 1.2s1.2-0.5 1.2-1.2c0.2-3.4-2.6-6.2-6.1-6.2zm-9 6.7z"/><path class="st1" d="m289 310.3c-0.3-1.3-1.5-2.2-2.9-2.2s-2.6 0.9-2.9 2.2c0.3 1.3 1.5 2.2 2.9 2.2 1.4 0.1 2.5-0.9 2.9-2.2z"/><path class="st1" d="m298.6 308.1c-1.4 0-2.6 0.9-2.9 2.2 0.3 1.3 1.5 2.2 2.9 2.2s2.6-0.9 2.9-2.2c-0.3-1.2-1.4-2.2-2.9-2.2z"/><path class="st1" d="m292.3 326.8c-1.9 0-3.4 0.8-3.9 1.9h7.7c-0.3-1.1-1.9-1.9-3.8-1.9z"/><path class="st1" d="m292.3 331.8c2.3 0 4.1-1 4.6-2.3h-9.3c0.6 1.3 2.5 2.3 4.7 2.3z"/><path class="st1" d="m137.5 260.2v351c0 19.9 16.2 36.1 36.1 36.1h69.9c12.5 0 24.4 6 31.7 16.1l19.1 26.2 19.1-26.2c7.4-10.1 19.2-16.1 31.7-16.1h69.9c19.9 0 36.1-16.2 36.1-36.1v-351zm144 127.6-5.4 5.9-3-6.3 2.2-1.4c0.7-0.4 1.1-1.1 1.1-1.6l-0.2-3.5c0-0.9-1.3-1.2-2.4-0.5l-3.1 2-4.5-9.3 0.3-0.1c0.5-0.2 0.7-0.9 0.5-1.4l-3.3-6.7c-0.2-0.5-0.9-0.7-1.4-0.5l-7.8 3.9c-0.5 0.2-0.7 0.9-0.5 1.4l3.3 6.7c0.2 0.5 0.9 0.7 1.4 0.5l0.8-0.4 4.9 9.5-3.8 1.9c-1.2 0.6-1.6 1.8-0.9 2.3l2.9 2c0.5 0.3 1.2 0.3 2-0.1l2.3-1.1 12.5 24.4c-2.1 0.5-4 1-5.1 1.1l-0.5 0.1c-3.5 0.4-7.4 0.8-9.3-1.5-1.1-1.4-2.2-5.5-3-8.5-0.4-1.5-0.7-2.8-1-3.7-0.1-0.2-0.2-0.6-0.3-1-0.2-0.8-0.4-1.5-0.6-2.1l0.6-0.1c0.6-0.1 1-0.6 0.9-1.2l-0.5-4c-0.1-0.6-0.6-1-1.2-0.9h-0.2c-0.1-2.8-0.8-6.3-1.5-8.4-0.2-0.6-0.9-1-1.5-0.8s-1 0.9-0.8 1.5c0.7 2.1 1.3 5.5 1.4 7.9l-15.3 2.1c0-0.2-0.1-0.5-0.2-0.7-0.4-0.8-0.7-1.8-0.7-2.7l-1-9.7c-0.4-6.4 0.9-11.2 3.8-14.2 2.4-2.5 5.9-3.7 9.6-5 0.9-0.3 1.8-0.6 2.6-0.9 3.4-1.3 6.9-3.1 10.3-5.3l12.9 11.7c-1.3 2.3-2 4.9-2 7.6-0.1 4.2 1.8 8.2 4.7 11.1zm19.4 7.8c-0.4-1.1-1.6-2.1-2.9-1.8-0.9 0.2-1.6 1-1.9 1.9l-0.2 0.8c-0.1 0.4-0.2 0.8-0.3 1.1-3.2 12.7-6.6 14.7-6.7 14.8s-0.3 0.2-0.4 0.3c-0.5 0.1-1.2 0.4-2.2 0.6-0.2 0.1-0.4 0.1-0.7 0.2l-8.4-17.4 6.1-6.7c2.6 1.8 5.7 2.9 9.1 2.9 4.7 0 8.9-2.1 11.8-5.4l9.3 8.5c-0.5 0-1.1 0.1-1.9 0.6-3.8 2-7.9 4.8-8 4.9-1 0.6-2.1 1.2-2.9 1.5 0-1 0.1-2.6 0.1-3.5 0.2-2.3 0.3-2.9 0.1-3.3zm-8.4-9.9c-5.1 0-9.3-4.2-9.3-9.3s4.2-9.3 9.3-9.3 9.3 4.2 9.3 9.3c0 5.2-4.2 9.3-9.3 9.3zm-51.4 16.3 15.9-2.1c0.3 0.3 0.6 1.7 0.8 2.3 0.1 0.4 0.2 0.8 0.3 1.1 0.3 0.8 0.6 2.1 1 3.5 0.9 3.6 2 7.7 3.4 9.5 1.8 2.1 4.4 2.7 7.1 2.7 1.4 0 2.9-0.2 4.3-0.3l0.5-0.1c2.6-0.3 8.8-2.1 12.5-3.1 1-0.3 1.8-0.5 2.3-0.6 0.2-0.1 0.4-0.2 0.5-0.3 0.7-0.3 4.6-2.4 8.1-16.4 0.1-0.3 0.2-0.6 0.3-1l0.2-0.8c0-0.1 0.1-0.2 0.1-0.2 0.1 0 0.1 0.1 0.2 0.1 0 0.3 0 1.5-0.1 2.4-0.2 4.1-0.2 5.3 0.5 5.9 0.2 0.2 0.6 0.4 0.9 0.4s1.1 0.1 5.1-2.2c0 0 4.2-2.8 7.8-4.8 0.6-0.3 0.8-0.3 1-0.2 0.3 0.2 0.8 0.7 1.5 0.6s1.3 0.1 1.4 0.2l0.2 0.2c-0.1 0.5 0.1 1 0.6 1.3 0.4 0.2 0.8 0.2 1.2 0 0.2 0.1 0.4 0.3 0.6 0.6 0 0.1-0.2 0.4-0.7 0.7-0.3 0.2-0.5 0.6-0.5 1s0.2 0.8 0.5 1c0.2 0.2 0.5 0.5 0.7 0.9-0.8 0.7-1.8 1.5-2.3 1.8s-0.7 0.8-0.5 1.4c0.1 0.4 0.3 0.7 0.5 1-0.1 0.2-0.4 0.5-0.6 0.6-5.5 5-11.6 8.6-18 12.4-1.6 0.9-3.2 1.9-4.8 2.8-1.2 0.5-2.3 1.1-3.4 1.6-9.3 4.5-15.7 5.8-29.2 6.6-7.1 0.5-16.7-4.1-17.4-10.7l-2.5-14.3c-0.1-1.9-0.2-3.7 0-5.5zm65.8 17.1-4.7 13.9c-1 0.6-3.4 2-5.5 3.3l-5.2-8.4c1.1-0.5 2.3-1.1 3.4-1.6h0.1c1.6-1 3.2-1.9 4.8-2.9 2.4-1.5 4.8-2.9 7.1-4.3zm-26.3 26.9-8.2 4.6c-1 0.7-2.3 1.8-2.8 3.3-0.3 1-0.2 2.2 0.4 3.1 0 0.1 0.1 0.1 0.2 0.2-0.2 0.3-0.5 0.6-0.7 0.9-0.6 1.2-0.5 2.6 0.4 3.5 0.5 0.5 1.1 0.7 1.8 0.7 0.3 0.4 0.7 0.7 1.1 0.8 1.1 0.3 2.1-0.1 2.6-0.4 0.7-0.3 1.1-0.5 1.5-0.7 0.1 0.2 0.2 0.4 0.4 0.6 0.4 0.4 0.9 0.8 1.9 0.8 0.5 0 1.1-0.1 1.9-0.4l16.7-6.7s0.1 0 0.1-0.1l12.3 16.1c0.1 0.1 0.3 0 0.2-0.1l-7.5-18.9 0.2-0.2c0.6-0.5 1.1-0.9 1.7-1.4 2.8-2.3 5.6-4.7 9-6.1l8.1-5c0.1-0.1 0.6-0.4 1.3-0.9l0.8 4.2c0 0.1 2.6 13 2.6 22.7 0 8-2.7 8.4-7.2 9l-1.3 0.2c-4.9 0.7-9.3 1.5-12.8 2.3-5.7 1.3-8.3 3.8-9.6 5.9-1.2-2.1-3.9-4.7-9.6-5.9-3.6-0.8-7.9-1.6-12.8-2.3l-1.3-0.2c-4.5-0.6-7.2-0.9-7.2-9 0-9.7 2.5-22.6 2.6-22.7l1.7-8.3c6.5-1.1 11.5-3 16.6-5.3l4.2 8.7c-3.8 0.9-9.2 1.8-10.5 2.6-3.4 2.3 1.2 4.4 1.2 4.4zm-18.3-1.9c0.9-3.2 1.6-5.8 1.9-7 0.1-0.2 0.1-0.4 0.1-0.6 0.8-0.1 1.5-0.2 2.3-0.3l-1.5 7.4c-0.1 0.5-2.6 13.3-2.6 23.2 0 10.1 4.5 10.7 9.3 11.4l1.3 0.2c4.9 0.7 9.2 1.5 12.7 2.3 8.4 1.9 8.8 6.7 8.8 6.9 0 0.6 0.6 1.1 1.2 1.1h0.1c0.6 0 1.2-0.5 1.2-1.1 0-0.2 0.4-5.1 8.8-6.9 3.5-0.8 7.8-1.5 12.7-2.3l1.3-0.2c4.8-0.6 9.3-1.2 9.3-11.4 0-9.9-2.5-22.7-2.6-23.2l-1-5.2c0.4-0.3 0.9-0.6 1.4-1l1.7 6.4v0.3c0.1 0.6 3.1 15.9 3.1 27.3 0 8.9-2.5 9.2-7.9 9.9-0.5 0.1-1.1 0.1-1.6 0.2-6 0.9-11.3 1.8-15.6 2.8-5.9 1.3-9.3 4.5-11.1 7.5-1.9-3.1-5.2-6.3-11.2-7.6-4.4-1-9.6-1.9-15.6-2.8-0.5-0.1-1.1-0.1-1.6-0.2-5.4-0.7-7.9-1-7.9-9.9-0.1-11.2 2.9-26.5 3-27.2zm58.4-5.3-7.8 4.9c-3.5 1.4-6.5 3.9-9.4 6.4-0.6 0.5-1.1 0.9-1.7 1.4-1.4 1.1-3 2.1-4.7 2.8l-16.7 6.7c-0.7 0.3-1 0.3-1 0.3 0-0.1 0.1-0.2 0.1-0.3 0.4-0.4 0.6-1.3 0.3-1.7-0.4-0.5-1.2-0.6-1.7-0.3-0.1 0.1-0.3 0.2-0.4 0.3-0.6 0.3-0.9 0.4-1.3 0.6s-0.8 0.4-1.7 0.8c-0.2 0.1-0.5 0.2-0.7 0.3 0.1-0.5 0-1-0.4-1.3s-1.1-0.3-1.5 0.1l-0.3 0.3c-0.1-0.1-0.1-0.4 0-0.7 0.2-0.4 0.6-0.7 1.2-1.1 0.4-0.3 0.7-0.8 0.6-1.3s-0.5-0.9-1-0.9c-0.1 0-0.2-0.1-0.3-0.2-0.2-0.3-0.3-0.7-0.1-1.1 0.3-0.8 1-1.4 2-2.2l7.3-4.6 4.4-2.3c-4.6-0.2-6.2-3.1-2.8-2.9 0.7 0 3.3-0.5 6-1 4.1-0.9 8-2.5 11.5-4.8l3.5-2.2c0.1-0.1 0.3-0.2 0.4-0.3l17.1-14.6c5.4-4.3 5.5-10.9 5.5-11.3-0.2-1.7-0.3-5.5-0.2-6.8l3 0.2 0.2 3.3-1.8 1.4 2.2 2.7 2.6-2.1 2.1 2.6 2.6-2.1 2.1 2.6 2.7-2.2-1.4-1.7 0.8-3.6 2 0.2c0.2 0.8 0.2 1.4 0.1 2l-1 10c-0.4 4-2.3 7.8-5.3 10.6l-5.4 4.9c-4 3.1-11.7 8.2-11.7 8.2zm10.8-33.3 0.7-3.3 2.2 0.2 0.2 3.4-1.7 1.4zm4.8 0.6 0.7-3.4 2 0.2 0.2 3.5-1.7 1.3zm-9.8-8.9v-0.1l-0.6-3.9 18.6 1.5c0.1 1.3 0 2.6-0.2 3.9zm-1.2-8.6-0.2-1.2c-0.1-0.7-0.7-1.1-1.4-1s-1.1 0.7-1 1.4l1.3 9.3c-0.5 0-0.8 0.4-0.9 0.8l-0.2 2.7c0 0.5 0.3 1 0.9 1h0.4c-0.2 2.1 0.2 7.1 0.2 7.1 0 0.1-0.1 5.8-4.6 9.3l-11 9.4 4-12.2v-0.1c1.8-1.4 3.6-2.8 5.4-4.4 0.6-0.5 1.1-1.1 1.4-2 0.2-0.6 0-1.1-0.2-1.4 1-0.8 2.2-1.8 2.4-1.9 0.4-0.3 0.5-0.9 0.3-1.4-0.1-0.2-0.4-0.9-0.9-1.6 0.3-0.4 0.6-0.8 0.7-1.4s-0.1-1.3-0.5-1.8c-0.8-0.9-1-1.3-1.7-1.4-0.1-0.2 0-0.8-0.7-1.3-0.3-0.2-0.7-0.2-0.7-0.2l7.4-22.6 8.7 7.7 4.6-11.4-13.8-3.3c-1-0.3-2.1 0.2-2.4 1.2l-8.1 25-8.8-8c1.6-2.5 2.5-5.4 2.5-8.5 0-2.5-0.6-4.8-1.6-6.9l12.3-13.5c3.5 2.4 7.2 4.3 10.7 5.6 0.9 0.3 1.8 0.6 2.6 0.9 3.8 1.3 7.3 2.5 9.9 5.1 3.1 3.2 4.4 8.1 4 14.7l-0.5 4.6c-0.1 0.8-0.5 2.2-0.9 3zm-22.4-24c-2.8-2.4-6.4-3.9-10.4-3.9-3.7 0-7.1 1.3-9.8 3.5l-11.8-10.7c3.3-2.6 6.3-5.5 8.8-8.6 0.9 1.2 2.2 2 3.8 2.4l4.4 1.1v5.1h8.8v-5.1l4.4-1.1c1.9-0.5 3.4-1.6 4.3-3.2 2.4 3 5.3 5.8 8.5 8.4zm-22.8-29.4c0.2 0.3 0.4 0.5 0.6 0.8 3 3.1 6.9 4.7 11.5 4.7h0.1c4.6 0 8.5-1.6 11.5-4.7 0.2-0.2 0.4-0.5 0.7-0.8l-0.4 5.5c-0.2 2-1.6 3.7-3.6 4.2l-8.3 2.1-8.3-2.1c-1.2-0.3-2.2-1.1-2.8-2.1-0.3-0.4-0.8-0.9-0.7-2.6zm25.6-16.5c0.2 6.1-1.5 11.4-4.6 14.6-2.2 2.3-5.2 3.5-8.8 3.5-3.5 0-6.5-1.2-8.7-3.5-3.1-3.2-4.8-8.5-4.6-14.6 0-0.5-0.2-1-0.5-1.4-0.4-0.4-0.8-0.6-1.4-0.6h-0.5c-0.3-0.5-1-1.9-1.2-3.9-0.2-1.7 0-2.9 0.2-3.5 0.9-0.2 1.5-0.9 1.6-1.9l0.1-2.2c8.6-4.4 21.7-4.4 30.4 0v2.2c0 0.9 0.7 1.7 1.6 1.9 0.2 0.6 0.3 1.8 0.2 3.5-0.2 2-0.9 3.4-1.2 3.9h-0.5c-0.5 0-1 0.2-1.4 0.6-0.5 0.4-0.7 0.9-0.7 1.4zm7.3-10c-0.3-1.3-0.8-2.2-1.5-2.7v-2c0-0.7-0.4-1.3-1-1.6-10-5.7-26.2-5.7-36.1 0-0.6 0.3-1 1-1 1.6v2c-2.1 1.5-1.9 5.8-1.8 7.2 0.2 1.9 0.9 4.7 2.3 6.2-16.9-1.7-30.8-5.9-38-10.9 9.9-6.8 32.1-11.8 56.6-11.8s46.7 5 56.6 11.8c-7.3 5-21.2 9.2-38.1 10.9 0.4-0.4 0.7-0.9 1-1.6 0.6-1.3 1.1-3 1.3-4.6 0-1.7 0-3.3-0.3-4.5zm-37.7 14.7c0.3 2.7 1 5.3 2.1 7.5l0.3 4.2c-26.7-2.1-47.4-10.4-47.4-19 0-1.8 0.9-3.5 2.4-5.2 8 6.2 23.2 10.8 42.6 12.5zm32 7.5c1-2.2 1.7-4.8 2.1-7.5 19.4-1.8 34.6-6.3 42.6-12.4 1.6 1.7 2.4 3.4 2.4 5.2 0 8.6-20.7 16.8-47.4 19zm44.6-24.9c-10.5-7.9-33-13.2-59.6-13.2s-49.1 5.3-59.6 13.2c-1.6-1.7-2.5-3.4-2.5-5.2 0-10.4 29-19.5 62.1-19.5s62.1 9.1 62.1 19.5c0 1.7-0.9 3.5-2.5 5.2zm-102.9 178.6v154.4c-1.8-0.2-3.6-0.3-5.5-0.3h-69.9c-15.2 0-27.5-12.3-27.5-27.5v-342.4h144.9c-1.7 0-3.2 1.4-3.2 3.2v1.9c-4.2 0.1-8.3 0.3-12.5 0.7-3.9 0.3-7.7 0.8-11.5 1.5-3.5 0.6-6.9 1.3-10.3 2.1-3 0.8-6 1.7-8.9 2.8-2.5 0.9-5 2-7.3 3.3-1.9 1.1-3.8 2.3-5.5 3.7-1.4 1.2-2.6 2.7-3.5 4.3-1 1.8-1.5 3.7-1.8 5.7-0.1 0.8-0.1 1.6-0.1 2.5 0.1 1.7 0.4 3.5 1.2 5.1 0.4 0.7 0.8 1.3 1.3 1.9 0.1 0.1 0.9 1.1 0.9 1.1-2.3 2.4-3.5 5-3.5 7.7 0 11.2 21.2 20.6 51.6 22.9l0.1 1.6-0.1 0.1c-5.9 7.8-15.2 14.9-23.8 18.1-0.8 0.3-1.7 0.6-2.6 0.9-3.9 1.4-8 2.8-11.1 5.9-3.7 3.8-5.4 9.6-4.9 17.3l1 9.7c0.1 1.2 0.4 2.5 0.9 3.6h-0.3c-0.6 0.1-1 0.6-0.9 1.2l0.5 4c0.1 0.5 0.4 0.8 0.9 0.9-0.2 1.7-0.1 3.5 0.2 5.3l3.4 14.2c0.8 7.5 9.8 14.8 17.9 14.9-2.7 9.9-5.5 20.4-5.7 21-1.1 3.4-4.7 14.7-4.4 26.7zm19.7 135c0 1.2-0.2 2.5-0.6 3.6-0.6 1.8-0.5 3.7 0.2 5.3 0.2 0.4 0.2 0.7 0.1 1.1-1 3.4-3 10.9-3.3 11.9-0.3 0.7-0.4 1.5-0.1 2.3-3.6-1.8-7.3-3.1-11.2-4v-127.5c3.7 16.3 8.5 34.4 9.8 39.5 0.2 0.7 0.2 1.4 0.1 2.1l-2.8 14.1c-0.3 1.3-0.2 2.7 0.1 4l7.6 32.6c0.1 0.4 0.1 0.7 0.1 1.1zm16.9 23.1h-1.8c-1 0.1-1.2 0-1.7 0.1-1 0.4-1.2 0.3-1.8 0.3h-1.8c-0.7 0-1.1 0-1.7-0.2-0.6-0.1-1.3-0.3-2.2-0.3h-0.6c-0.4 0-0.8 0.1-1.3 0.1-1.2 0.1-2 0.2-2.7-0.2-0.1 0-0.1-0.1-0.2-0.1 0.8-3.2 2.4-8.8 3.2-11.6 0.4-1.5 0.3-3-0.3-4.4-0.3-0.6-0.3-1.3-0.1-1.9 0.6-1.7 0.8-3.4 0.8-5.1v-13.8c0-0.7-0.1-1.5-0.3-2.2l-7.6-32.7c-0.2-0.7-0.2-1.3 0-2l2.8-14.1c0.3-1.4 0.2-2.9-0.1-4.3-2.2-8.2-13.2-50.1-14.3-63.4-0.4-4.6-0.1-9.2 0.5-13.4 0.7 10.8 6.7 11.6 12 12.3 0.5 0.1 1 0.1 1.5 0.2 5.8 0.9 11 1.8 15.2 2.7 7.7 1.7 9.4 7.3 9.8 9.9 0 0.3-0.1 0.5-0.1 0.7l-6.8 49.8c-0.2 1.2-0.1 2.3 0.2 3.5l3.5 15c0.2 0.8 0.2 1.6-0.1 2.4l-6.1 21.3c-0.2 0.9-0.4 1.8-0.4 2.6l-0.5 25.8c0 0.6-0.1 4.9-0.2 6.5s0.1 5.6 1.2 7.7l3.2 6.5 0.1 0.1c0.3 0.4 0.5 0.9 0.5 1.6-0.5 0.4-1.3 0.6-1.8 0.6zm14.1-4.7c-0.7 1.1-1.1 2.4-1.3 3.8-0.2 2.3-5.9 2.4-6.1-0.1-0.1-1.3-0.5-2.5-1.2-3.5l-3.1-6.3c-0.5-0.9-0.8-3.7-0.7-5.3 0.1-1.7 0.2-6.1 0.2-6.7l0.5-25.8c0-0.4 0.1-0.9 0.2-1.3l6.1-21.3c0.5-1.6 0.5-3.2 0.1-4.8l-3.5-15c-0.1-0.6-0.2-1.2-0.1-1.7l4.5-33.2 4.7 33.2c0.1 0.6 0.1 1.2-0.1 1.7l-3.5 15c-0.4 1.6-0.3 3.3 0.1 4.8l6.1 21.3c0.1 0.4 0.2 0.9 0.2 1.4l0.5 25.7c0 0.7 0.1 5.1 0.2 6.7s-0.3 4.4-0.8 5.4zm21.2 4.7c-0.8 0.4-1.6 0.3-2.8 0.2-0.4 0-0.8-0.1-1.3-0.1-1.3-0.1-2.2 0.1-2.8 0.2s-1 0.2-1.7 0.2h-0.9-0.7-0.2c-0.6 0-0.8 0-1.8-0.3-0.4-0.2-0.7-0.1-1.6-0.1h-0.2-1.6c-0.5-0.1-1.3-0.2-2-0.4v-0.2c0-0.5 0.2-1 0.6-1.6l3.1-6.4c1.1-2.2 1.3-6.1 1.3-7.7-0.1-1.7-0.2-5.9-0.2-6.6l-0.5-25.7c0-0.9-0.1-1.8-0.4-2.7l-6.1-21.3c-0.2-0.8-0.2-1.6-0.1-2.4l3.5-15c0.3-1.2 0.3-2.3 0.2-3.5l-6.8-49.7c0-0.1 0-0.3-0.1-0.7 0.4-2.5 2.1-8.1 9.8-9.8 4.2-0.9 9.4-1.9 15.3-2.7 0.5-0.1 1-0.1 1.5-0.2 5.3-0.7 11.3-1.5 12-12.4 0.6 4.1 0.9 8.7 0.5 13.3-1.1 13.3-12.1 55.1-14.3 63.4-0.4 1.4-0.4 2.9-0.1 4.3l2.8 14.1c0.1 0.7 0.1 1.4 0 2l-7.6 32.7c-0.2 0.7-0.3 1.4-0.3 2.2v13.8c0 1.8 0.3 3.5 0.8 5.1 0.2 0.6 0.2 1.3-0.1 1.9-0.6 1.4-0.7 3-0.3 4.4 1 3.2 2.8 10.1 3.2 11.6 0 0-0.1 0-0.1 0.1zm16.2-3.2c-3.8 0.7-7.6 1.7-11.1 3.3 0-0.5-0.1-0.9-0.3-1.4-0.6-2.1-2.3-8.7-3.3-11.9-0.1-0.4-0.1-0.7 0.1-1.1 0.7-1.7 0.8-3.6 0.2-5.3-0.4-1.2-0.6-2.4-0.6-3.6v-13.8c0-0.4 0-0.7 0.1-1.1l7.8-32.6c0.3-1.3 0.3-2.7 0.1-4l-2.8-14.1c-0.1-0.7-0.1-1.4 0.1-2.1 1.4-5.1 6.1-23.2 9.8-39.6v127.3zm105.6-28.3c0 15.2-12.3 27.5-27.5 27.5h-69.9c-1.1 0-2.3 0.1-3.4 0.2v-154.4c0.3-12-3.3-23.3-4.5-26.7-0.2-0.6-6.4-23.2-6.4-23.2s1.9-1.4 2.7-2.1l5.5-5c3.4-3.2 5.6-7.4 6.1-12.1l1-9.9c0.2-0.8 0.1-1.5 0-2.2l0.8 0.1c0.5 0 1-0.3 1-0.9l0.2-2.7c0-0.5-0.3-1-0.9-1l-0.7-0.1c0.2-1.3 0.3-2.6 0.2-3.9l0.7 0.1c0.5 0 1-0.3 1-0.9l0.2-2.7c0-0.5-0.3-1-0.9-1l-0.7-0.1c0.4-1.1 0.7-2.3 0.8-3l0.5-4.6c0.5-7.4-1.1-12.9-4.7-16.6-2.9-3-6.9-4.4-10.8-5.7-0.9-0.3-1.7-0.6-2.6-0.9-8.6-3.2-18-10.3-24-18.2 0-0.2 0.1-0.3 0.1-0.5l0.1-1.8c30.4-2.3 51.6-11.7 51.6-22.9 0-2.7-1.2-5.3-3.5-7.7 1.4-1.5 2.6-3.2 3.1-5.2 0.6-2 0.6-4.2 0.2-6.3-0.1-0.8-0.3-1.5-0.6-2.2-1.1-3.1-3.1-5.7-5.7-7.7-2-1.5-4.1-2.8-6.4-3.9-2.7-1.3-5.5-2.4-8.4-3.3-3.3-1.1-6.7-2-10.2-2.7-3.9-0.8-7.8-1.5-11.7-2-4.3-0.5-8.6-0.9-12.9-1.1-1.9-0.1-3.8-0.2-5.7-0.2v-1.7c0-1.7-1.4-3.2-3.2-3.2h149.1v342.4z"/>
	<path class="st4" d="m294.1 731.8c-64.4 0-121.2-15.8-154.8-39.8v-20.6c0-5.1 5.5-8.2 9.8-5.6 34.3 20.4 86.5 33.4 145 33.4 58.7 0 111.1-13.1 145.3-33.6 4.6-2.7 10.4 0.5 10.4 5.9v19.9c-33.5 24.3-90.7 40.4-155.7 40.4z"/>
<g stroke="#000" stroke-width=".4">
	<path d="m161.7 688.5c0.1-0.8 0-1.4-0.2-2-0.2-0.5-0.7-1-1.4-1.2-0.5-0.2-1-0.3-1.4-0.3s-0.7 0.2-1 0.4-0.6 0.5-0.8 0.9-0.4 0.7-0.6 1.1l-0.4 0.9c-0.3 0.6-0.4 1.2-0.5 1.6-0.1 0.5-0.1 0.9 0 1.2s0.3 0.6 0.5 0.9c0.3 0.2 0.6 0.5 1 0.6s0.7 0.2 0.9 0.2 0.5-0.1 0.7-0.3 0.4-0.4 0.5-0.6c0.1-0.3 0.3-0.5 0.4-0.9l0.2-0.4-1.2-0.5 0.1-0.1 3.6 1.5-0.1 0.1-0.7-0.3-1 2.4-0.2-0.1c0-0.1 0-0.2-0.1-0.2l-0.2-0.2c-0.2-0.1-0.4-0.1-0.6-0.1h-0.6c-0.2 0-0.5 0-0.8-0.1s-0.6-0.1-0.9-0.3c-0.6-0.2-1.1-0.6-1.5-1s-0.8-0.9-1-1.4c-0.3-0.5-0.4-1-0.4-1.6s0-1.1 0.3-1.7c0.2-0.6 0.6-1.1 1.1-1.4 0.5-0.4 1-0.6 1.5-0.8 0.6-0.2 1.1-0.2 1.7-0.2s1.1 0.2 1.6 0.4l0.6 0.3c0.2 0.1 0.4 0.3 0.5 0.4 0.2 0.1 0.3 0.2 0.4 0.3s0.2 0.2 0.3 0.2 0.2 0.1 0.2 0 0.1-0.1 0.2-0.1l0.2 0.1-0.9 2.1z"/>
	<path d="m171.4 689.8-0.7 1.8-0.2-0.1v-0.5c0-0.2-0.1-0.5-0.2-0.7s-0.3-0.5-0.5-0.7-0.5-0.4-0.9-0.6l-1.8-0.7-1.3 3.2 0.7 0.3c0.3 0.1 0.5 0.2 0.8 0.2s0.4 0 0.6-0.1 0.4-0.2 0.5-0.4c0.2-0.2 0.3-0.3 0.5-0.6l0.2 0.1-1.3 3.3-0.2-0.1v-0.7c0-0.2 0-0.4-0.1-0.6s-0.2-0.4-0.3-0.5c-0.1-0.2-0.4-0.3-0.6-0.4l-0.8-0.3-1.5 3.8 1.9 0.7c0.4 0.1 0.7 0.2 1 0.2s0.6 0 0.9-0.2c0.3-0.1 0.6-0.3 0.8-0.5s0.5-0.4 0.7-0.7l0.2 0.1-0.9 2.3-7.4-2.9 0.1-0.1 1.1 0.4 2.8-7.2-1.1-0.4 0.1-0.1z"/>
	<path d="m175.3 691.2 2.1 6.4 1.8-4.9-1.1-0.4 0.1-0.1 2.3 0.8-0.1 0.1-1.1-0.4-2.7 7.4-0.3-0.1-2.8-8.7-2.4 6.6 1.1 0.4-0.1 0.1-2.3-0.8 0.1-0.1 1.1 0.4 2.6-7.2-1.1-0.4 0.1-0.1z"/>
	<path d="m183.4 694.2c-0.3-0.1-0.6-0.2-0.8-0.2s-0.5 0-0.7 0.1-0.4 0.2-0.7 0.4c-0.2 0.2-0.4 0.4-0.7 0.8l-0.2-0.1 0.6-2 7.4 2.5-0.6 2-0.2-0.1c0-0.4 0-0.7-0.1-1s-0.2-0.5-0.3-0.7-0.3-0.4-0.5-0.5-0.5-0.2-0.8-0.3l-0.4-0.1-2.4 7.3 1.1 0.4v0.1l-3.9-1.3v-0.1l1.1 0.4 2.4-7.3z"/>
	<path d="m193.2 697.2v0.1l-1.2-0.3-2.3 7.3 1.1 0.3v0.2l-3.9-1.2v-0.2l1.1 0.3 2.3-7.3-1.1-0.3v-0.2z"/>
	<path d="m197.8 698.5v0.2l-1.1-0.3-1.4 4.9c-0.1 0.3-0.2 0.7-0.2 1-0.1 0.3-0.1 0.6 0 0.9s0.2 0.5 0.4 0.8c0.2 0.2 0.5 0.4 1 0.5 0.4 0.1 0.8 0.2 1.1 0.2s0.6-0.1 0.8-0.1c0.2-0.1 0.4-0.2 0.6-0.4s0.3-0.3 0.4-0.5 0.2-0.3 0.2-0.5c0.1-0.2 0.1-0.3 0.1-0.4l1.4-5.1-1.1-0.3v-0.2l2.4 0.7v0.2l-1.1-0.3-1.4 5.1c0 0.1-0.1 0.3-0.1 0.4-0.1 0.2-0.1 0.4-0.3 0.5-0.1 0.2-0.3 0.3-0.4 0.5-0.2 0.2-0.4 0.3-0.6 0.4-0.3 0.1-0.6 0.1-0.9 0.1-0.4 0-0.8-0.1-1.3-0.2-0.8-0.2-1.4-0.5-1.8-0.8s-0.7-0.6-0.9-0.9-0.3-0.7-0.3-1 0.1-0.7 0.2-1l1.4-5-1.1-0.3v-0.2z"/>
	<path d="m206 700.8 0.7 6 3.5-4.9 3 0.8v0.2l-1.1-0.3-1.9 7.5 1.1 0.3v0.2l-4-1v-0.2l1.1 0.3 1.9-7.5-4.9 6.8h-0.2l-1.1-8.4-1.9 7.5 1.1 0.3v0.2l-2.4-0.6v-0.2l1.1 0.3 1.9-7.5-1.1-0.3v-0.2z"/>
	<path d="m223.9 704.9v0.2l-1.2-0.2 1.3 6.5 3.8-5.5-1.1-0.2v-0.2l2.3 0.5v0.2l-1.1-0.2-5.1 7.3-0.4-0.1-1.8-8.7-1-0.2v-0.2z"/>
	<path d="m236.4 707.2-0.3 1.9h-0.2c0-0.1-0.1-0.3-0.1-0.5l-0.3-0.6c-0.1-0.2-0.3-0.4-0.6-0.6s-0.6-0.3-1-0.4l-2-0.3-0.6 3.4 0.7 0.1c0.3 0.1 0.6 0.1 0.8 0 0.2 0 0.4-0.1 0.6-0.2s0.3-0.3 0.4-0.5l0.3-0.6h0.2l-0.6 3.4h-0.2c0-0.2-0.1-0.4-0.1-0.7 0-0.2-0.1-0.4-0.2-0.6s-0.2-0.3-0.4-0.4-0.4-0.2-0.7-0.3l-0.8-0.1-0.7 4 2 0.4c0.4 0.1 0.7 0.1 1.1 0 0.3-0.1 0.6-0.2 0.9-0.3 0.3-0.2 0.5-0.4 0.7-0.6s0.4-0.5 0.5-0.8h0.2l-0.4 2.4-7.9-1.4v-0.2l1.1 0.2 1.3-7.6-1.1-0.2v-0.2z"/>
	<path d="m241.8 708v0.2l-1.1-0.2-1.1 7.6 2 0.3h0.8c0.3 0 0.6-0.1 0.8-0.3 0.3-0.2 0.5-0.4 0.8-0.6 0.2-0.3 0.4-0.6 0.6-1h0.2l-0.4 2.5-7.8-1.2v-0.2l1.1 0.2 1.1-7.6-1.1-0.2v-0.2z"/>
	<path d="m253 709.7v-0.2l7.3 0.8-0.2 1.9h-0.2c-0.1-0.3-0.2-0.5-0.3-0.8-0.1-0.2-0.3-0.4-0.4-0.6-0.2-0.2-0.4-0.3-0.6-0.4s-0.5-0.2-0.9-0.2l-1.9-0.2-0.4 3.6 0.7 0.1h0.8c0.2-0.1 0.4-0.1 0.6-0.3s0.3-0.3 0.4-0.5 0.2-0.4 0.3-0.7h0.2l-0.4 3.5h-0.2c0-0.2-0.1-0.4-0.1-0.6-0.1-0.2-0.1-0.4-0.3-0.6s-0.3-0.3-0.5-0.4-0.4-0.2-0.7-0.2l-0.8-0.1-0.4 3.9 1.2 0.1v0.2l-4.1-0.4v-0.2l1.1 0.1 0.8-7.6z"/>
	<path d="m261.6 712.7c0.3-0.5 0.7-0.9 1.2-1.2s1-0.6 1.6-0.7c0.6-0.2 1.1-0.2 1.7-0.2s1.1 0.2 1.7 0.4c0.5 0.2 1 0.6 1.4 0.9 0.4 0.4 0.7 0.9 1 1.4 0.2 0.5 0.3 1.1 0.3 1.8 0 0.6-0.2 1.1-0.5 1.6s-0.7 0.9-1.1 1.2c-0.5 0.3-1 0.6-1.5 0.8-0.6 0.2-1.2 0.2-1.8 0.2s-1.2-0.2-1.7-0.5-1-0.6-1.4-1-0.7-0.9-0.9-1.4-0.3-1.1-0.3-1.7c-0.2-0.6 0-1.1 0.3-1.6zm1.4 3.8c0.1 0.5 0.2 0.9 0.4 1.3 0.2 0.3 0.4 0.6 0.8 0.7 0.3 0.1 0.7 0.2 1.2 0.3 0.6 0 1.1 0 1.5-0.2s0.6-0.4 0.8-0.8c0.2-0.3 0.3-0.8 0.4-1.3s0.1-1 0.2-1.6c0-0.5 0.1-1 0.1-1.5s-0.1-0.9-0.2-1.3-0.4-0.7-0.7-0.9-0.8-0.4-1.4-0.4-1.1 0-1.4 0.2c-0.4 0.2-0.7 0.4-0.9 0.8-0.2 0.3-0.4 0.8-0.5 1.2-0.1 0.5-0.2 1-0.2 1.6-0.1 0.7-0.1 1.4-0.1 1.9z"/>
	<path d="m271.4 711.3v-0.2l1.9 0.1h1 1c0.3 0 0.7 0.1 1 0.1s0.7 0.2 1 0.4 0.5 0.4 0.7 0.6c0.2 0.3 0.3 0.6 0.2 0.9 0 0.3-0.1 0.6-0.3 0.8s-0.4 0.4-0.6 0.5-0.5 0.2-0.8 0.3-0.6 0.1-0.9 0.1v0.1c0.4 0.1 0.8 0.2 1.1 0.3s0.6 0.2 0.8 0.3 0.4 0.3 0.5 0.6c0.1 0.2 0.2 0.6 0.2 1v1.1c0 0.3 0 0.5 0.1 0.7 0 0.2 0.1 0.3 0.2 0.3 0.1 0.1 0.2 0.1 0.3 0.1 0.2 0 0.3 0 0.4-0.1s0.2-0.2 0.3-0.2l0.1 0.1c-0.1 0.1-0.2 0.1-0.3 0.2s-0.2 0.1-0.3 0.1-0.2 0.1-0.4 0.1h-0.6c-0.5 0-0.8-0.1-1.1-0.2s-0.4-0.3-0.5-0.5-0.2-0.4-0.2-0.6v-0.6-0.9c0-0.3-0.1-0.5-0.2-0.8-0.1-0.2-0.2-0.4-0.5-0.6s-0.5-0.2-0.9-0.2h-0.8l-0.2 4.1 1.1 0.1v0.2l-4.1-0.2v-0.2l1.1 0.1 0.4-7.7zm3.3 3.6c0.4 0 0.7 0 0.9-0.1s0.4-0.2 0.5-0.3 0.2-0.3 0.2-0.5 0.1-0.4 0.1-0.6v-0.9c0-0.3-0.1-0.4-0.2-0.6s-0.3-0.3-0.5-0.4-0.5-0.1-0.8-0.2h-0.3-0.3l-0.2 3.5z"/>
	<path d="m282.7 711.8c-0.3 0-0.6 0-0.8 0.1s-0.5 0.1-0.7 0.3c-0.2 0.1-0.4 0.3-0.5 0.6-0.2 0.2-0.3 0.6-0.4 0.9h-0.2l0.1-2.1 7.8 0.2-0.1 2.1h-0.2c-0.1-0.4-0.2-0.7-0.4-1-0.1-0.2-0.3-0.4-0.5-0.6l-0.6-0.3c-0.2-0.1-0.5-0.1-0.8-0.1h-0.4l-0.2 7.7h1.1v0.2l-4.1-0.1v-0.2h1.1l0.2-7.7z"/>
	<path d="m292.9 711.8v0.2h-1.1l-0.1 7.7h1.1v0.2h-4.1v-0.2h1.1l0.1-7.7h-1.1v-0.2z"/>
	<path d="m294.2 717.3c0 0.1 0 0.2 0.1 0.4 0 0.1 0.1 0.3 0.2 0.5s0.2 0.3 0.3 0.5 0.3 0.3 0.4 0.5c0.2 0.2 0.4 0.3 0.6 0.4s0.4 0.2 0.5 0.2c0.2 0 0.3 0.1 0.5 0.1h0.4c0.4 0 0.8-0.1 1.1-0.2s0.5-0.3 0.7-0.5 0.3-0.4 0.3-0.6c0.1-0.2 0.1-0.4 0.1-0.5 0-0.3-0.1-0.5-0.2-0.7s-0.3-0.3-0.6-0.4c-0.2-0.1-0.5-0.2-0.8-0.3s-0.6-0.2-1-0.2c-0.3-0.1-0.6-0.2-1-0.3-0.3-0.1-0.6-0.3-0.8-0.4-0.2-0.2-0.4-0.4-0.6-0.7-0.1-0.3-0.2-0.6-0.2-1 0-0.3 0.1-0.6 0.2-0.9s0.4-0.5 0.6-0.7c0.3-0.2 0.6-0.4 0.9-0.5 0.4-0.1 0.8-0.2 1.2-0.2 0.3 0 0.5 0 0.7 0.1 0.2 0 0.4 0.1 0.6 0.1s0.3 0.1 0.4 0.1 0.2 0.1 0.3 0.1 0.2 0 0.2-0.1c0 0 0.1-0.1 0.1-0.2h0.2v2.1h-0.2c-0.1-0.3-0.2-0.5-0.3-0.8s-0.3-0.5-0.4-0.7c-0.2-0.2-0.4-0.4-0.7-0.5s-0.6-0.2-1-0.2c-0.3 0-0.6 0-0.9 0.1s-0.5 0.2-0.6 0.3-0.3 0.3-0.4 0.5-0.1 0.3-0.1 0.5c0 0.3 0.1 0.5 0.2 0.6 0.2 0.2 0.4 0.3 0.6 0.4 0.3 0.1 0.5 0.2 0.9 0.3 0.3 0.1 0.7 0.2 1 0.3s0.7 0.2 1 0.3 0.6 0.3 0.9 0.4c0.3 0.2 0.5 0.4 0.6 0.6 0.2 0.3 0.2 0.6 0.2 0.9 0 0.4-0.1 0.7-0.2 1-0.2 0.3-0.4 0.6-0.7 0.9-0.3 0.2-0.7 0.5-1.1 0.6-0.4 0.2-0.9 0.2-1.4 0.2-0.3 0-0.5 0-0.8-0.1-0.3 0-0.5-0.1-0.7-0.1s-0.4-0.1-0.6-0.1-0.3-0.1-0.4-0.1-0.2 0-0.2 0.1c0 0-0.1 0.1-0.1 0.2h-0.2v-2.5z"/>
	<path d="m302.2 717.2c0 0.1 0.1 0.2 0.1 0.4 0 0.1 0.1 0.3 0.2 0.5s0.2 0.3 0.3 0.5 0.3 0.3 0.5 0.5 0.4 0.3 0.6 0.4 0.4 0.1 0.5 0.2c0.2 0 0.3 0.1 0.5 0.1h0.4c0.4 0 0.8-0.1 1.1-0.2s0.5-0.3 0.7-0.5 0.3-0.4 0.3-0.6c0.1-0.2 0.1-0.4 0.1-0.5 0-0.3-0.1-0.5-0.2-0.7-0.2-0.2-0.3-0.3-0.6-0.4-0.2-0.1-0.5-0.2-0.8-0.3s-0.6-0.1-1-0.2c-0.3-0.1-0.6-0.2-1-0.3-0.3-0.1-0.6-0.2-0.8-0.4s-0.4-0.4-0.6-0.7-0.2-0.6-0.3-1c0-0.3 0.1-0.6 0.2-0.9s0.3-0.5 0.6-0.8c0.3-0.2 0.6-0.4 0.9-0.5 0.4-0.1 0.8-0.2 1.2-0.2h0.7c0.2 0 0.4 0.1 0.6 0.1s0.3 0.1 0.4 0.1 0.2 0.1 0.3 0.1 0.2 0 0.2-0.1 0.1-0.1 0.1-0.2h0.2l0.1 2.1h-0.2c-0.1-0.3-0.2-0.5-0.3-0.8s-0.3-0.5-0.5-0.7-0.4-0.4-0.7-0.5-0.6-0.2-1-0.2c-0.3 0-0.6 0.1-0.9 0.2s-0.5 0.2-0.6 0.3c-0.2 0.1-0.3 0.3-0.4 0.5s-0.1 0.3-0.1 0.5c0 0.3 0.1 0.5 0.3 0.6 0.2 0.2 0.4 0.3 0.6 0.4 0.3 0.1 0.5 0.2 0.9 0.3 0.3 0.1 0.7 0.2 1 0.2 0.3 0.1 0.7 0.2 1 0.3s0.6 0.2 0.9 0.4 0.5 0.4 0.6 0.6c0.2 0.3 0.2 0.6 0.3 0.9 0 0.4-0.1 0.7-0.2 1.1-0.2 0.3-0.4 0.6-0.7 0.9s-0.7 0.5-1.1 0.6c-0.4 0.2-0.9 0.2-1.4 0.3h-0.8c-0.3 0-0.5-0.1-0.7-0.1s-0.4-0.1-0.6-0.1-0.3-0.1-0.4-0.1-0.2 0-0.2 0.1c0 0-0.1 0.1-0.1 0.2h-0.2l-0.1-2.5z"/>
	<path d="m313.6 711.2v0.2l-1.1 0.1 0.4 7.7 1.1-0.1v0.2l-4.1 0.2v-0.2l1.1-0.1-0.4-7.7-1.1 0.1v-0.2z"/>
	<path d="m317.5 711 2.6 5.4 1.8-5.7 3.1-0.2v0.2l-1.1 0.1 0.6 7.7 1.1-0.1v0.2l-4.1 0.3v-0.2l1.1-0.1-0.6-7.7-2.5 8h-0.2l-3.6-7.6 0.6 7.7 1.1-0.1v0.2l-2.5 0.2v-0.2l1.1-0.1-0.6-7.7-1.1 0.1v-0.2z"/>
	<path d="m326.6 718.2 2.9-8.5h0.3l4.7 7.7 1.1-0.1v0.2l-4.2 0.4v-0.2l1.2-0.1-1.7-2.8-3 0.3-1.1 3.1 1.1-0.1v0.2l-2.3 0.2v-0.2zm1.3-3.4 2.9-0.3-1.8-2.9z"/>
	<path d="m334.7 709.6v-0.2l1.9-0.2c0.3 0 0.7-0.1 1-0.1s0.7-0.1 1-0.1 0.7-0.1 1 0c0.4 0 0.7 0.1 1 0.2s0.6 0.3 0.8 0.5 0.4 0.5 0.4 0.9c0 0.3 0 0.6-0.1 0.8s-0.3 0.4-0.5 0.6-0.5 0.3-0.7 0.4c-0.3 0.1-0.6 0.2-0.8 0.2v0.1c0.4 0 0.8 0 1.1 0.1 0.3 0 0.6 0.1 0.9 0.2 0.2 0.1 0.5 0.3 0.6 0.5 0.2 0.2 0.3 0.5 0.4 0.9 0.1 0.5 0.2 0.8 0.2 1.1s0.1 0.5 0.2 0.6 0.1 0.2 0.2 0.3c0.1 0 0.2 0.1 0.4 0 0.2 0 0.3-0.1 0.4-0.2l0.3-0.3 0.1 0.1c-0.1 0.1-0.1 0.2-0.2 0.2-0.1 0.1-0.2 0.1-0.3 0.2s-0.2 0.1-0.4 0.2c-0.1 0-0.3 0.1-0.6 0.1-0.5 0.1-0.8 0-1.1-0.1s-0.5-0.2-0.6-0.4-0.3-0.4-0.3-0.6-0.1-0.4-0.1-0.6c-0.1-0.3-0.1-0.6-0.2-0.9s-0.2-0.5-0.3-0.7-0.3-0.4-0.6-0.5c-0.2-0.1-0.5-0.1-0.9-0.1l-0.8 0.1 0.5 4 1.1-0.1v0.2l-4.1 0.5v-0.2l1.1-0.1-1-7.6zm3.9 3c0.4 0 0.7-0.1 0.9-0.2s0.3-0.3 0.4-0.4 0.1-0.3 0.1-0.5v-0.6c0-0.3-0.1-0.6-0.2-0.8s-0.2-0.4-0.3-0.5-0.3-0.2-0.5-0.3c-0.2 0-0.5-0.1-0.8 0h-0.3c-0.1 0-0.2 0-0.3 0.1l0.4 3.4z"/>
	<path d="m347.4 707.7v0.2l-1.1 0.2 0.8 5c0.1 0.3 0.1 0.7 0.2 1s0.2 0.6 0.4 0.8 0.4 0.4 0.7 0.5 0.7 0.1 1.1 0.1c0.4-0.1 0.8-0.2 1.1-0.3s0.5-0.3 0.7-0.5 0.3-0.4 0.4-0.6 0.1-0.4 0.1-0.6v-0.5c0-0.2 0-0.3-0.1-0.4l-0.8-5.2-1.1 0.2v-0.2l2.5-0.4v0.2l-1.1 0.2 0.8 5.2c0 0.1 0 0.3 0.1 0.5v0.6c0 0.2-0.1 0.4-0.2 0.6s-0.2 0.4-0.4 0.6-0.5 0.4-0.8 0.5-0.7 0.3-1.2 0.3c-0.8 0.1-1.5 0.1-2 0.1s-0.9-0.2-1.2-0.5c-0.3-0.2-0.5-0.5-0.6-0.8s-0.2-0.6-0.3-1l-0.8-5.2-1.1 0.2v-0.2z"/>
	<path d="m355.9 706.4 3.1 5.1 1.2-5.9 3.1-0.6v0.2l-1.1 0.2 1.4 7.6 1.1-0.2v0.2l-4 0.7v-0.2l1.1-0.2-1.4-7.6-1.6 8.3h-0.2l-4.4-7.2 1.4 7.6 1.1-0.2v0.2l-2.5 0.4v-0.2l1.1-0.2-1.4-7.6-1.1 0.2v-0.2z"/>
	<path d="m374.5 702.5v0.2l-1.1 0.3 1.7 7.5 1.1-0.3v0.2l-4 0.9v-0.2l1.1-0.3-1.7-7.5-1.1 0.3v-0.2z"/>
	<path d="m377.8 701.9c-0.3 0.1-0.6 0.2-0.8 0.3s-0.4 0.3-0.6 0.4c-0.2 0.2-0.3 0.4-0.4 0.7s-0.1 0.6-0.2 1h-0.2l-0.5-2 7.6-1.9 0.5 2h-0.2c-0.2-0.3-0.4-0.6-0.6-0.8s-0.4-0.4-0.6-0.4c-0.2-0.1-0.5-0.1-0.7-0.1s-0.5 0-0.8 0.1l-0.4 0.1 1.8 7.5 1.1-0.3v0.2l-4 1v-0.2l1.1-0.3-1.8-7.5z"/>
	<path d="m385.9 707.8 1.4-8.8 0.3-0.1 5.9 6.8 1-0.3v0.2l-4 1.1v-0.2l1.1-0.3-2.2-2.5-2.9 0.8-0.5 3.3 1.1-0.3v0.2l-2.3 0.6v-0.2zm0.8-3.5 2.8-0.8-2.2-2.6z"/>
	<path d="m396.5 696.7v0.2l-1.1 0.3 2.2 7.4 2-0.6c0.3-0.1 0.5-0.2 0.8-0.4 0.2-0.2 0.5-0.4 0.6-0.6 0.2-0.3 0.3-0.6 0.4-0.9s0.1-0.7 0.1-1.2h0.2l0.7 2.4-7.6 2.3v-0.2l1.1-0.3-2.2-7.4-1.1 0.3v-0.2z"/>
	<path d="m404.9 694.1v0.2l-1.1 0.4 2.4 7.3 1.1-0.4v0.2l-3.9 1.3v-0.1l1.1-0.4-2.4-7.3-1.1 0.4v-0.2z"/>
	<path d="m408.4 701.2 0.9-8.9 0.3-0.1 6.4 6.4 1-0.3 0.1 0.1-4 1.4-0.1-0.1 1.1-0.4-2.4-2.4-2.8 1-0.3 3.3 1.1-0.4 0.1 0.1-2.2 0.8-0.1-0.1zm0.5-3.6 2.7-0.9-2.4-2.4z"/>
	<path d="m421.3 688.2 0.7 1.8-0.2 0.1-0.4-0.4c-0.2-0.2-0.4-0.3-0.6-0.4s-0.5-0.2-0.8-0.2-0.7 0-1 0.2l-1.9 0.7 1.2 3.3 0.7-0.2c0.3-0.1 0.5-0.2 0.7-0.4 0.2-0.1 0.3-0.3 0.4-0.5s0.1-0.4 0.1-0.6v-0.7l0.2-0.1 1.2 3.3-0.2 0.1c-0.1-0.2-0.3-0.4-0.4-0.5-0.1-0.2-0.3-0.3-0.5-0.4s-0.4-0.2-0.6-0.2-0.5 0-0.7 0.1l-0.8 0.3 1.4 3.8 1.9-0.7c0.4-0.1 0.7-0.3 0.9-0.5s0.4-0.5 0.6-0.7l0.3-0.9c0.1-0.3 0.1-0.6 0-1l0.2-0.1 0.9 2.3-7.5 2.8-0.1-0.1 1.1-0.4-2.7-7.2-1.1 0.4-0.1-0.1z"/>
</g></g>
</svg>
