<?xml version="1.0" encoding="utf-8"?>
<!-- Generator: Adobe Illustrator 23.0.1, SVG Export Plug-In . SVG Version: 6.00 Build 0)  -->
<svg version="1.1"
	 id="svg2" inkscape:output_extension="org.inkscape.output.svg.inkscape" inkscape:version="0.45.1" sodipodi:docbase="C:\Users\Luigi\Desktop\svg" sodipodi:docname="Coat_of_arms_of_Liguria.svg" sodipodi:version="0.32" xmlns:cc="http://web.resource.org/cc/" xmlns:dc="http://purl.org/dc/elements/1.1/" xmlns:inkscape="http://www.inkscape.org/namespaces/inkscape" xmlns:rdf="http://www.w3.org/1999/02/22-rdf-syntax-ns#" xmlns:sodipodi="http://sodipodi.sourceforge.net/DTD/sodipodi-0.dtd" xmlns:svg="http://www.w3.org/2000/svg"
	 xmlns="http://www.w3.org/2000/svg" xmlns:xlink="http://www.w3.org/1999/xlink" x="0px" y="0px" width="250px" height="310.23px"
	 viewBox="0 0 250 310.23" enable-background="new 0 0 250 310.23" xml:space="preserve">
<g>
	<path fill-rule="evenodd" clip-rule="evenodd" fill="#FFFFFF" d="M1.179,181.804V47.711H1.168l0.004-2.397
		c0.004-2.493,0.144-4.824,0.478-7.001c0.347-2.271,0.897-4.42,1.709-6.47c0.803-2.029,1.874-3.974,3.272-5.857
		c1.378-1.855,3.056-3.624,5.089-5.324c3.101-2.594,8.773-5.133,16.316-7.464c7.557-2.336,17.066-4.505,27.784-6.342
		c10.522-1.804,22.181-3.28,34.288-4.277h0.009c11.349-0.934,23.166-1.447,34.885-1.412c11.72-0.035,23.535,0.478,34.884,1.412h0.01
		c12.108,0.997,23.767,2.474,34.289,4.277c10.717,1.837,20.226,4.006,27.784,6.342c7.542,2.332,13.214,4.871,16.316,7.464
		c2.034,1.7,3.711,3.469,5.089,5.324c1.398,1.884,2.469,3.829,3.272,5.857c0.81,2.049,1.361,4.199,1.709,6.47
		c0.333,2.176,0.474,4.507,0.477,7.001l0.004,2.397h-0.011v134.093v2.398h-2.398H112.27h-2.397H3.567H1.179V181.804z"/>
	<rect x="119.057" y="1.807" fill-rule="evenodd" clip-rule="evenodd" fill="#FF0000" width="11.892" height="181.683"/>
	<rect x="1.383" y="92.689" fill-rule="evenodd" clip-rule="evenodd" fill="#FF0000" width="246.564" height="11.892"/>
	<path fill-rule="evenodd" clip-rule="evenodd" fill="#969696" d="M4.226,189.141l60.005,3.195l2.326,0.124l-0.059,2.32
		l-0.013,0.469v1.189c0,9.827,1.984,19.183,5.576,27.701c3.737,8.863,9.219,16.844,16.027,23.531
		c6.799,6.679,14.923,12.061,23.955,15.739c8.253,3.359,17.249,5.291,26.667,5.483h1.554c9.443,0,18.495-1.748,26.823-4.941
		c8.627-3.309,16.473-8.159,23.17-14.217c6.617-5.986,12.128-13.164,16.179-21.21c3.913-7.773,6.456-16.348,7.307-25.432
		l0.203-2.182h2.175h29.892h2.777l-0.407,2.743c-2.177,14.678-6.911,28.454-13.716,40.901
		c-7.013,12.826-16.223,24.231-27.099,33.748c-11.158,9.763-24.076,17.543-38.179,22.836c-13.663,5.128-28.422,7.92-43.749,7.92
		c-16.318,0-31.936-3.15-46.259-8.88c-14.836-5.936-28.268-14.644-39.632-25.491c-11.257-10.746-20.491-23.595-27.058-37.935
		c-6.338-13.838-10.189-29.061-10.974-45.112L1.588,189L4.226,189.141z"/>
	<path fill-rule="evenodd" clip-rule="evenodd" d="M3.56,45.314h0.007v136.49h106.306h136.556V45.314h0.017
		c-0.007-4.687-0.542-8.835-2.027-12.59c-1.465-3.704-3.881-7.059-7.668-10.226c-5.792-4.845-21.994-9.687-42.967-13.283
		c-20.272-3.476-44.865-5.732-68.78-5.66c-23.915-0.072-48.509,2.185-68.781,5.66c-20.973,3.595-37.174,8.438-42.967,13.283
		c-3.787,3.167-6.203,6.523-7.668,10.226C4.102,36.479,3.567,40.627,3.56,45.314 M0,45.314h0.007
		c0.007-5.133,0.604-9.705,2.264-13.9c1.68-4.247,4.421-8.071,8.699-11.648c6.274-5.246,23.097-10.367,44.653-14.062
		c20.422-3.501,45.227-5.775,69.38-5.702c24.153-0.072,48.957,2.201,69.379,5.702c21.557,3.695,38.38,8.817,44.653,14.062
		c4.278,3.577,7.02,7.402,8.7,11.648c1.659,4.194,2.257,8.766,2.264,13.9h-0.003v140.057h-0.067v0.001H140.057H0v-0.001V45.314z"/>
	<polygon fill-rule="evenodd" clip-rule="evenodd" fill="#969696" points="190.556,122.756 185.162,134.196 172.557,133.148 
		179.767,143.54 172.557,153.933 185.162,152.884 190.626,164.237 195.952,152.884 208.565,153.881 201.346,143.54 208.565,133.18 
		195.952,134.196 	"/>
	<polygon fill-rule="evenodd" clip-rule="evenodd" fill="#969696" points="59.639,122.756 54.244,134.196 41.64,133.148 
		48.849,143.54 41.64,153.933 54.244,152.884 59.709,164.237 65.034,152.884 77.647,153.881 70.429,143.54 77.647,133.18 
		65.034,134.196 	"/>
	<polygon fill-rule="evenodd" clip-rule="evenodd" fill="#969696" points="190.556,27.496 185.162,38.937 172.557,37.889 
		179.767,48.281 172.557,58.673 185.162,57.625 190.626,68.978 195.952,57.625 208.565,58.622 201.346,48.281 208.565,37.921 
		195.952,38.937 	"/>
	<polygon fill-rule="evenodd" clip-rule="evenodd" fill="#969696" points="59.639,27.496 54.244,38.937 41.64,37.889 48.849,48.281 
		41.64,58.673 54.244,57.625 59.709,68.978 65.034,57.625 77.647,58.622 70.429,48.281 77.647,37.921 65.034,38.937 	"/>
	<rect x="122.935" y="183.954" fill-rule="evenodd" clip-rule="evenodd" width="4.136" height="84.164"/>
	<path fill-rule="evenodd" clip-rule="evenodd" d="M64.11,194.724l-60.006-3.195c1.568,32.047,15.592,60.713,37.293,81.426
		c21.901,20.905,51.623,33.707,84.243,33.707c30.594,0,58.811-11.305,80.355-30.157c21.015-18.389,35.681-43.951,40.018-73.196
		h-29.892c-1.791,19.114-10.808,36.023-24.263,48.195c-13.615,12.317-31.777,19.785-51.594,19.785v0.008
		c-21.025,0-40.066-8.378-53.853-21.921c-13.792-13.547-22.323-32.265-22.323-52.937h-0.007
		C64.082,196.012,64.092,195.434,64.11,194.724 M67.811,191.982l-0.051,0.835c-0.034,0.657-0.059,1.276-0.074,1.839
		c-0.012,0.44-0.019,1.03-0.019,1.782H67.66c0,19.678,8.125,37.499,21.258,50.4c13.139,12.906,31.293,20.89,51.346,20.89v0.007
		c18.889,0,36.204-7.122,49.185-18.866c12.974-11.737,21.615-28.094,23.165-46.574v-2.242h37.258v1.46v0.031l-0.006,0.011
		c-4.031,31.065-19.336,58.23-41.503,77.626c-22.181,19.409-51.229,31.049-82.723,31.049c-33.571,0-64.17-13.183-86.723-34.711
		c-22.414-21.396-36.874-51.041-38.401-84.182l-0.009-0.001l-0.172-3.202L67.811,191.982z"/>
</g>
</svg>
