<?xml version="1.0" standalone="no"?>
<!DOCTYPE svg PUBLIC "-//W3C//DTD SVG 1.1//EN" 
  "http://www.w3.org/Graphics/SVG/1.1/DTD/svg11.dtd">
<svg xmlns="http://www.w3.org/2000/svg" version="1.1" width="600" height="600" id="Flag_of_Triesen2">


<g transform="scale(1.171875,1.171875)">
<g fill="rgb(0,51,153)" style="fill-opacity:1.0;fill-rule:evenodd;stroke:none;">
<rect width="512" height="512"/></g>
<g style="fill-opacity:1.0;fill-rule:evenodd;fill:white;stroke:none;">
  <polygon points="440.212,170.149 466.611,93.5782 453.524,88.1385 
    439.957,82.9548 425.877,78.0271 411.414,73.3874 396.567,69.0677 
    381.432,65.0679 366.009,61.3882 350.362,58.0924 334.587,55.1805 
    318.652,52.6527 302.685,50.5408 286.686,48.8769 270.687,47.661 
    254.816,46.8931 239.041,46.6371 223.49,46.8931 208.131,47.661 
    193.06,48.9729 178.341,50.8288 163.974,53.2927 150.055,56.3325 
    136.615,59.9803 123.688,64.268 111.369,69.2277 99.6578,74.8273 
    88.6185,81.1309 78.3151,88.1385 68.7797,95.882 60.0762,104.329 
    52.2367,113.577 45.3572,123.592 39.4375,134.408 49.9969,127.944 
    60.7162,122.184 71.6275,117.097 82.6668,112.649 93.8341,108.809 
    105.097,105.577 116.489,102.89 127.944,100.746 139.463,99.1138 
    151.079,97.9939 162.694,97.3219 174.373,97.0979 186.052,97.2579 
    197.732,97.8339 209.379,98.7938 221.026,100.074 232.609,101.674 
    244.161,103.562 255.616,105.705 266.975,108.105 278.271,110.697 
    289.438,113.513 300.445,116.489 311.357,119.593 322.076,122.792 
    332.635,126.12 343.035,129.512 353.21,132.904 363.161,136.359 
    372.889,139.783 382.392,143.175 391.608,146.503 425.621,104.297 
    442.932,112.905 418.582,159.302 440.212,170.149 440.212,170.149 "/>
</g>
<g style="fill-opacity:1.0;fill-rule:evenodd;fill:black;stroke:none;">
  <polygon points="94.5061,90.3144 103.882,86.0586 113.513,82.2509 
    123.4,78.8591 133.512,75.8513 143.815,73.2274 154.342,70.9876 
    165.03,69.1317 175.877,67.6278 186.852,66.4758 197.988,65.6759 
    209.219,65.1959 220.546,65.0679 231.938,65.2279 243.425,65.6759 
    254.944,66.4438 266.495,67.4678 278.047,68.7797 289.598,70.3796 
    301.149,72.2035 312.668,74.2834 324.092,76.5872 335.483,79.1151 
    346.778,81.8669 358.01,84.8427 369.081,87.9785 380.024,91.3383 
    390.84,94.8581 401.463,98.5378 411.926,102.378 422.166,106.377 
    432.213,110.505 442.004,114.761 446.004,106.761 437.653,102.346 
    428.661,98.0579 419.094,93.8981 409.046,89.9624 398.487,86.1546 
    387.512,82.5708 376.152,79.1791 364.441,75.9793 352.41,73.0354 
    340.155,70.3156 327.644,67.8198 315.004,65.5799 302.237,63.628 
    289.374,61.9321 276.479,60.5242 263.584,59.4043 250.752,58.6043 
    238.017,58.0924 225.41,57.9324 212.995,58.0924 200.803,58.6363 
    188.9,59.5003 177.317,60.7482 166.086,62.3801 155.238,64.396 
    144.871,66.7958 134.984,69.6437 125.64,72.8754 116.873,76.5552 
    108.713,80.683 101.258,85.2587 94.5061,90.3144 94.5061,90.3144 "/>
</g>
<g style="fill-opacity:1.0;fill-rule:evenodd;fill:black;stroke:none;">
  <path d="M441.684418,174.213104L  470.514618,92.266235 457.555389,86.250610 443.956238,80.554962 429.749146,75.147308   415.030090,70.091621 399.863037,65.419907 384.279968,61.100185 368.344971,57.164429   352.153992,53.644650 335.707031,50.572842 319.100067,47.949005 302.365112,45.805138   285.630127,44.109245 268.895203,42.957317 252.224243,42.317356 235.681259,42.221363   219.330292,42.669331 203.235291,43.725269 187.460281,45.357166 172.069244,47.629025   157.126175,50.540840 142.631088,54.060623 128.711960,58.284359 115.432793,63.212051   102.793571,68.843697 90.890320,75.179298 79.787018,82.282860 69.547661,90.154366   60.204239,98.793823 51.852760,108.265228 44.525219,118.536591 38.285606,129.639908   33.197926,141.607162 44.493221,134.727585 55.916504,128.551971 67.403786,123.080307   79.019066,118.280609 90.666336,114.152863 102.409599,110.601089 114.184868,107.689270   126.024124,105.321419 137.895386,103.465538 149.766632,102.153618 161.669907,101.353668   173.541153,100.969688 185.412415,101.033691 197.251678,101.545662 209.058945,102.409599   220.802200,103.625519 232.513458,105.161430 244.128754,107.017319 255.680023,109.161179   267.103302,111.561028 278.430603,114.184868 289.661896,117.000687 300.765198,119.976509   311.708527,123.112305 322.491852,126.376099 333.115173,129.735886 343.578552,133.127670   353.849884,136.615463 363.897247,140.071243 373.784637,143.559036 383.416046,146.982819   392.823456,150.374603 427.253326,108.201241 439.284546,113.768890 413.974152,160.933945   441.684418,174.213104 ZM440.212494,170.149368L  466.610840,93.578156 453.523682,88.138489 439.956512,82.954819 425.877380,78.027122   411.414307,73.387413 396.567200,69.067688 381.432159,65.067932 366.009125,61.388165   350.362122,58.092373 334.587097,55.180550 318.652100,52.652710 302.685089,50.540840   286.686066,48.876945 270.687073,47.661022 254.816071,46.893070 239.041061,46.637085   223.490036,46.893070 208.130997,47.661022 193.059937,48.972939 178.340851,50.828827   163.973755,53.292667 150.054626,56.332481 136.615463,59.980251 123.688271,64.267982   111.369041,69.227676 99.657776,74.827324 88.618462,81.130936 78.315109,88.138489   68.779701,95.882011 60.076244,104.329483 52.236736,113.576904 45.357166,123.592278   39.437534,134.407593 49.996876,127.944000 60.716206,122.184364 71.627525,117.096680   82.666832,112.648964 93.834137,108.809204 105.097427,105.577400 116.488724,102.889572   127.944000,100.745705 139.463272,99.113800 151.078568,97.993881 162.693832,97.321915   174.373108,97.097931 186.052383,97.257927 197.731644,97.833885 209.378922,98.793823   221.026199,100.073753 232.609467,101.673645 244.160751,103.561531 255.616028,105.705391   266.975342,108.105247 278.270630,110.697090 289.437927,113.512909 300.445221,116.488724   311.356537,119.592529 322.075867,122.792328 332.635223,126.120117 343.034576,129.511902   353.209930,132.903687 363.161316,136.359482 372.888702,139.783264 382.392090,143.175049   391.607513,146.502853 425.621399,104.297485 442.932312,112.904945 418.581848,159.302048   440.212494,170.149368 Z"/>
</g>
<g style="fill-opacity:1.0;fill-rule:evenodd;fill:white;stroke:none;">
  <polygon points="440.212,478.258 466.611,401.719 453.524,396.279 
    439.957,391.096 425.877,386.168 411.414,381.528 396.567,377.208 
    381.432,373.177 366.009,369.529 350.362,366.233 334.587,363.321 
    318.652,360.793 302.685,358.682 286.686,357.018 270.687,355.802 
    254.816,355.034 239.041,354.778 223.49,355.002 208.131,355.77 
    193.06,357.082 178.341,358.97 163.974,361.401 150.055,364.441 
    136.615,368.121 123.688,372.409 111.369,377.336 99.6578,382.968 
    88.6185,389.272 78.3151,396.279 68.7797,403.991 60.0762,412.47 
    52.2367,421.718 45.3572,431.701 39.4375,442.516 49.9969,436.085 
    60.7162,430.325 71.6275,425.237 82.6668,420.79 93.8341,416.95 
    105.097,413.686 116.489,411.03 127.944,408.886 139.463,407.255 
    151.079,406.103 162.694,405.431 174.373,405.207 186.052,405.399 
    197.732,405.975 209.379,406.903 221.026,408.182 232.609,409.782 
    244.161,411.67 255.616,413.846 266.975,416.214 278.271,418.838 
    289.438,421.622 300.445,424.597 311.357,427.701 322.076,430.933 
    332.635,434.261 343.035,437.621 353.21,441.044 363.161,444.468 
    372.889,447.924 382.392,451.316 391.608,454.644 425.621,412.438 
    442.932,421.014 418.582,467.411 440.212,478.258 440.212,478.258 "/>
</g>
<g style="fill-opacity:1.0;fill-rule:evenodd;fill:black;stroke:none;">
  <polygon points="94.5061,398.423 103.882,394.199 113.513,390.392 
    123.4,386.968 133.512,383.96 143.815,381.368 154.342,379.128 
    165.03,377.272 175.877,375.769 186.852,374.617 197.988,373.817 
    209.219,373.337 220.546,373.177 231.938,373.337 243.425,373.817 
    254.944,374.553 266.495,375.609 278.047,376.92 289.598,378.488 
    301.149,380.312 312.668,382.392 324.092,384.728 335.483,387.256 
    346.778,390.008 358.01,392.951 369.081,396.119 380.024,399.447 
    390.84,402.967 401.463,406.679 411.926,410.518 422.166,414.486 
    432.213,418.614 442.004,422.87 446.004,414.902 437.653,410.454 
    428.661,406.167 419.094,402.039 409.046,398.071 398.487,394.295 
    387.512,390.712 376.152,387.288 364.441,384.12 352.41,381.176 
    340.155,378.424 327.644,375.961 315.004,373.721 302.237,371.737 
    289.374,370.041 276.479,368.633 263.584,367.513 250.752,366.713 
    238.017,366.233 225.41,366.073 212.995,366.233 200.803,366.745 
    188.9,367.641 177.317,368.889 166.086,370.489 155.238,372.505 
    144.871,374.937 134.984,377.752 125.64,381.016 116.873,384.696 
    108.713,388.824 101.258,393.399 94.5061,398.423 94.5061,398.423 "/>
</g>
<g style="fill-opacity:1.0;fill-rule:evenodd;fill:black;stroke:none;">
  <path d="M441.684418,482.353882L  470.514618,400.406952 457.555389,394.391357 443.956238,388.663727 429.749146,383.288055   415.030090,378.232361 399.863037,373.528687 384.279968,369.208923 368.344971,365.305176   352.153992,361.785400 335.707031,358.713593 319.100067,356.089752 302.365112,353.913910   285.630127,352.250000 268.895203,351.098053 252.224243,350.426117 235.681259,350.330109   219.330292,350.810089 203.235291,351.866028 187.460281,353.497925 172.069244,355.769775   157.126175,358.649597 142.631088,362.201385 128.711960,366.425110 115.432793,371.352783   102.793571,376.952454 90.890320,383.320038 79.787018,390.423615 69.547661,398.295105   60.204239,406.934570 51.852760,416.373993 44.525219,426.645355 38.285606,437.780640   33.197926,449.747894 44.493221,442.836334 55.916504,436.692719 67.403786,431.221039   79.019066,426.421356 90.666336,422.261627 102.409599,418.741852 114.184868,415.798035   126.024124,413.430176 137.895386,411.606293 149.766632,410.294342 161.669907,409.462402   173.541153,409.110443 185.412415,409.174438 197.251678,409.654419 209.058945,410.518372   220.802200,411.734253 232.513458,413.302185 244.128754,415.158051 255.680023,417.301941   267.103302,419.669769 278.430603,422.293610 289.661896,425.109436 300.765198,428.117249   311.708527,431.253052 322.491852,434.484863 333.115173,437.844635 343.578552,441.268433   353.849884,444.724213 363.897247,448.212006 373.784637,451.667786 383.416046,455.123535   392.823456,458.483368 427.253326,416.309998 439.284546,421.877655 413.974152,469.074707   441.684418,482.353882 ZM440.212494,478.258118L  466.610840,401.718903 453.523682,396.279236 439.956512,391.095581 425.877380,386.167877   411.414307,381.528168 396.567200,377.208435 381.432159,373.176666 366.009125,369.528931   350.362122,366.233093 334.587097,363.321289 318.652100,360.793457 302.685089,358.681580   286.686066,357.017670 270.687073,355.801788 254.816071,355.033813 239.041061,354.777832   223.490036,355.001801 208.130997,355.769775 193.059937,357.081696 178.340851,358.969574   163.973755,361.401398 150.054626,364.441223 136.615463,368.121002 123.688271,372.408722   111.369041,377.336426 99.657776,382.968079 88.618462,389.271667 78.315109,396.279236   68.779701,403.990753 60.076244,412.470245 52.236736,421.717651 45.357166,431.701019   39.437534,442.516357 49.996876,436.084747 60.716206,430.325104 71.627525,425.237427   82.666832,420.789703 93.834137,416.949951 105.097427,413.686157 116.488724,411.030334   127.944000,408.886444 139.463272,407.254547 151.078568,406.102631 162.693832,405.430664   174.373108,405.206696 186.052383,405.398651 197.731644,405.974640 209.378922,406.902557   221.026199,408.182495 232.609467,409.782379 244.160751,411.670258 255.616028,413.846130   266.975342,416.213989 278.270630,418.837830 289.437927,421.653656 300.445221,424.597473   311.356537,427.701294 322.075867,430.933075 332.635223,434.260864 343.034576,437.620636   353.209930,441.044434 363.161316,444.468231 372.888702,447.924011 382.392090,451.315796   391.607513,454.643585 425.621399,412.438232 442.932312,421.013672 418.581848,467.410797   440.212494,478.258118 Z"/>
</g>
<g style="fill-opacity:1.0;fill-rule:evenodd;fill:white;stroke:none;">
  <polygon points="440.212,324.22 466.611,247.649 453.524,242.209 
    439.957,237.025 425.877,232.097 411.414,227.458 396.567,223.138 
    381.432,219.138 366.009,215.459 350.362,212.163 334.587,209.251 
    318.652,206.723 302.685,204.611 286.686,202.947 270.687,201.731 
    254.816,200.963 239.041,200.707 223.49,200.963 208.131,201.731 
    193.06,203.011 178.341,204.899 163.974,207.331 150.055,210.403 
    136.615,214.051 123.688,218.338 111.369,223.298 99.6578,228.898 
    88.6185,235.201 78.3151,242.209 68.7797,249.952 60.0762,258.4 
    52.2367,267.647 45.3572,277.663 39.4375,288.446 49.9969,282.014 
    60.7162,276.255 71.6275,271.167 82.6668,266.719 93.8341,262.88 
    105.097,259.648 116.489,256.96 127.944,254.816 139.463,253.184 
    151.079,252.064 162.694,251.392 174.373,251.136 186.052,251.328 
    197.732,251.904 209.379,252.864 221.026,254.144 232.609,255.744 
    244.161,257.632 255.616,259.776 266.975,262.176 278.271,264.767 
    289.438,267.583 300.445,270.527 311.357,273.631 322.076,276.863 
    332.635,280.19 343.035,283.55 353.21,286.974 363.161,290.43 
    372.889,293.854 382.392,297.245 391.608,300.573 425.621,258.368 
    442.932,266.975 418.582,313.372 440.212,324.22 440.212,324.22 "/>
</g>
<g style="fill-opacity:1.0;fill-rule:evenodd;fill:black;stroke:none;">
  <polygon points="94.5061,244.353 103.882,240.129 113.513,236.321 
    123.4,232.897 133.512,229.922 143.815,227.298 154.342,225.058 
    165.03,223.202 175.877,221.698 186.852,220.546 197.988,219.746 
    209.219,219.266 220.546,219.106 231.938,219.266 243.425,219.746 
    254.944,220.482 266.495,221.538 278.047,222.85 289.598,224.418 
    301.149,226.274 312.668,228.354 324.092,230.658 335.483,233.185 
    346.778,235.937 358.01,238.913 369.081,242.049 380.024,245.409 
    390.84,248.928 401.463,252.608 411.926,256.448 422.166,260.416 
    432.213,264.543 442.004,268.799 446.004,260.832 437.653,256.416 
    428.661,252.096 419.094,247.969 409.046,244.001 398.487,240.225 
    387.512,236.641 376.152,233.249 364.441,230.05 352.41,227.106 
    340.155,224.354 327.644,221.89 315.004,219.65 302.237,217.666 
    289.374,216.003 276.479,214.563 263.584,213.475 250.752,212.643 
    238.017,212.163 225.41,212.003 212.995,212.163 200.803,212.675 
    188.9,213.571 177.317,214.819 166.086,216.45 155.238,218.466 
    144.871,220.866 134.984,223.714 125.64,226.946 116.873,230.626 
    108.713,234.753 101.258,239.329 94.5061,244.353 94.5061,244.353 "/>
</g>
<g style="fill-opacity:1.0;fill-rule:evenodd;fill:black;stroke:none;">
  <path d="M441.684418,328.283478L  470.514618,246.336609 457.555389,240.320984 443.956238,234.625336 429.749146,229.217682   415.030090,224.162003 399.863037,219.458282 384.279968,215.138565 368.344971,211.234802   352.153992,207.715027 335.707031,204.643219 319.100067,202.019379 302.365112,199.843506   285.630127,198.179611 268.895203,197.027695 252.224243,196.387726 235.681259,196.291733   219.330292,196.739700 203.235291,197.795654 187.460281,199.427536 172.069244,201.699402   157.126175,204.579224 142.631088,208.130997 128.711960,212.354736 115.432793,217.282425   102.793571,222.914078 90.890320,229.249680 79.787018,236.353241 69.547661,244.224747   60.204239,252.864197 51.852760,262.335602 44.525219,272.606964 38.285606,283.710266   33.197926,295.677521 44.493221,288.797943 55.916504,282.622345 67.403786,277.150696   79.019066,272.350983 90.666336,268.223236 102.409599,264.671448 114.184868,261.727631   126.024124,259.359772 137.895386,257.535919 149.766632,256.223999 161.669907,255.392044   173.541153,255.040054 185.412415,255.104065 197.251678,255.584030 209.058945,256.447968   220.802200,257.695923 232.513458,259.231812 244.128754,261.087708 255.680023,263.231537   267.103302,265.631378 278.430603,268.223236 289.661896,271.039062 300.765198,274.046875   311.708527,277.182678 322.491852,280.446472 333.115173,283.774261 343.578552,287.198059   353.849884,290.653839 363.897247,294.141632 373.784637,297.629395 383.416046,301.053192   392.823456,304.412964 427.253326,262.271606 439.284546,267.839264 413.974152,315.004303   441.684418,328.283478 ZM440.212494,324.219727L  466.610840,247.648514 453.523682,242.208862 439.956512,237.025192 425.877380,232.097488   411.414307,227.457779 396.567200,223.138062 381.432159,219.138306 366.009125,215.458527   350.362122,212.162750 334.587097,209.250931 318.652100,206.723083 302.685089,204.611221   286.686066,202.947327 270.687073,201.731400 254.816071,200.963455 239.041061,200.707458   223.490036,200.963455 208.130997,201.731400 193.059937,203.011307 178.340851,204.899200   163.973755,207.331055 150.054626,210.402847 136.615463,214.050629 123.688271,218.338364   111.369041,223.298050 99.657776,228.897690 88.618462,235.201294 78.315109,242.208862   68.779701,249.952377 60.076244,258.399841 52.236736,267.647278 45.357166,277.662659   39.437534,288.445984 49.996876,282.014374 60.716206,276.254761 71.627525,271.167053   82.666832,266.719330 93.834137,262.879578 105.097427,259.647797 116.488724,256.959930   127.944000,254.816071 139.463272,253.184189 151.078568,252.064240 162.693832,251.392288   174.373108,251.136307 186.052383,251.328293 197.731644,251.904266 209.378922,252.864197   221.026199,254.144119 232.609467,255.744019 244.160751,257.631897 255.616028,259.775757   266.975342,262.175598 278.270630,264.767456 289.437927,267.583282 300.445221,270.527100   311.356537,273.630890 322.075867,276.862701 332.635223,280.190491 343.034576,283.550293   353.209930,286.974091 363.161316,290.429871 372.888702,293.853638 382.392090,297.245422   391.607513,300.573212 425.621399,258.367859 442.932312,266.975342 418.581848,313.372437   440.212494,324.219727 Z"/>
</g>
</g>
</svg>
